<svg xmlns="http://www.w3.org/2000/svg" viewBox="0 0 64 64">
  <rect width="64" height="64" rx="12" fill="#0b0b0b"/>
  <g fill="#d9ff3d">
    <rect x="17" y="11" width="5.2" height="5.2"/><rect x="23" y="11" width="5.2" height="5.2"/><rect x="29" y="11" width="5.2" height="5.2"/><rect x="35" y="11" width="5.2" height="5.2"/><rect x="41" y="11" width="5.2" height="5.2"/>
    <rect x="17" y="17" width="5.2" height="5.2"/>
    <rect x="17" y="23" width="5.2" height="5.2"/><rect x="23" y="23" width="5.2" height="5.2"/><rect x="29" y="23" width="5.2" height="5.2"/><rect x="35" y="23" width="5.2" height="5.2"/>
    <rect x="41" y="29" width="5.2" height="5.2"/>
    <rect x="41" y="35" width="5.2" height="5.2"/>
    <rect x="17" y="41" width="5.2" height="5.2"/><rect x="41" y="41" width="5.2" height="5.2"/>
    <rect x="23" y="47" width="5.2" height="5.2"/><rect x="29" y="47" width="5.2" height="5.2"/><rect x="35" y="47" width="5.2" height="5.2"/>
  </g>
</svg>
